<?xml version="1.0" encoding="utf-8"?>
<!-- Generator: Adobe Illustrator 27.5.0, SVG Export Plug-In . SVG Version: 6.00 Build 0)  -->
<svg version="1.1" id="Layer_2_00000143577492945390448960000000535068524541956286_"
	 xmlns="http://www.w3.org/2000/svg" xmlns:xlink="http://www.w3.org/1999/xlink" x="0px" y="0px" viewBox="0 0 655 168.6"
	 style="enable-background:new 0 0 655 168.6;" xml:space="preserve">
<style type="text/css">
	.st0{fill:#FFFFFF;}
	.st1{fill:#3BAD49;}
	.st2{fill:#F4B61A;}
	.st3{fill:#EA3332;}
	.st4{fill:#5A78BB;}
</style>
<g>
	<g id="PkNJPP">
		<g>
			<path class="st0" d="M655,98.6c-0.3,0.7-0.5,1.3-0.7,1.8c-7.4,17-14.8,33.9-22.2,50.8c-1.8,4.2-3.7,8.5-5.5,12.7
				c-0.2,0.4-0.7,1.1-1.1,1.1c-3.4,0.1-6.7,0.1-10.3,0.1c0.6-1.3,1.1-2.4,1.6-3.5c2.9-6.5,5.8-12.9,8.7-19.4c0.2-0.5,0.2-1.3,0-1.8
				c-5.6-12.7-11.2-25.4-16.8-38.2c-0.5-1.2-1.1-2.4-1.6-3.5c0.1-0.1,0.2-0.2,0.2-0.2c3.4,0,6.8-0.1,10.1,0c0.4,0,1,0.6,1.2,1
				c3.8,9.2,7.5,18.3,11.3,27.5c0.3,0.8,0.6,1.5,1,2.5c0.3-0.5,0.5-0.8,0.6-1.1c3.8-9.7,7.7-19.4,11.5-29c0.1-0.3,0.6-0.8,0.9-0.8
				C647.6,98.5,651.2,98.6,655,98.6L655,98.6z"/>
			<path class="st0" d="M410.6,108.4c0-11.4,0-22.8,0-34.2c0-0.7,0.2-1,0.9-1c3,0,6,0,9,0c0.7,0,0.8,0.4,0.8,1
				c0,1.9-0.1,3.8-0.1,5.7c0,20.8,0,41.5,0,62.3c0,1.7,0,1.6-1.7,1.6c-2.6,0-5.2,0-7.8,0c-0.9,0-1.2-0.2-1.1-1.1
				C410.6,131.2,410.6,119.8,410.6,108.4L410.6,108.4L410.6,108.4z"/>
			<path class="st0" d="M548.2,143.7c0-2.6,0-5,0-7.4c0-20.7,0-41.3,0-62c0-0.9,0.2-1.2,1.1-1.2c2.9,0,5.7,0,8.6,0
				c1.1,0,0.9,0.7,0.9,1.4c0,13.6,0,27.2,0,40.8c0,9,0,18.1,0,27.1c0,1.1-0.3,1.4-1.4,1.4c-2.6-0.1-5.2,0-7.9,0
				C549.2,143.7,548.8,143.7,548.2,143.7L548.2,143.7z"/>
			<path class="st0" d="M275.7,145.2c-14.1-0.5-24-10.8-23.9-24c0.1-14.8,10.7-24,24.2-24c13.2,0,24,9.5,24,24
				C300,134.6,290.1,144.9,275.7,145.2L275.7,145.2z M276.1,135.8c2.1,0,4.3-0.5,6.4-1.7c5.5-3.1,8.2-9.8,6.7-16.4
				c-1.2-5.1-4.1-8.8-9.3-10.4c-4.9-1.5-9.4-0.5-13.1,3c-3.9,3.7-5,8.3-4.3,13.5C263.4,130.7,269.1,135.7,276.1,135.8L276.1,135.8z"
				/>
			<path class="st0" d="M328.1,145.2c-13.4-0.2-23.9-11.1-23.6-24.5c0.3-13.3,10.4-23.7,24.2-23.5c13.7,0.2,24.2,9.8,23.9,24.7
				C352.4,135.3,342,145,328.1,145.2L328.1,145.2z M342.3,121.5c-0.1-1.1-0.1-2.1-0.3-3.2c-1-5.5-4-9.4-9.4-11.1
				c-5.4-1.7-10.2-0.3-14,3.9c-3.2,3.6-4.1,8-3.4,12.8c1.2,8.2,8.8,13.4,16.8,11.5C338,133.9,342.1,128.2,342.3,121.5L342.3,121.5z"
				/>
			<path class="st0" d="M393.3,102.5c0-1,0-2,0-2.9c0-0.8,0.2-1.1,1-1.1c2.8,0.1,5.5,0.1,8.2,0.1c0.6,0,0.8,0.3,0.8,0.9
				c0,1,0,2.1,0,3.1c0,13.1,0.1,26.1-0.1,39.1c0,3.1-0.5,6.4-1.3,9.4c-2.7,9.8-10.2,15.4-20.6,15.5c-10,0.2-17-4.4-21.7-13
				c-0.3-0.6-0.5-1.1,0.4-1.4c2.7-1.1,5.4-2.2,8.1-3.3c0.2,0.4,0.5,0.7,0.7,1.1c3.7,7.1,10.9,8.8,17.5,6.2c4-1.6,6-5,6.6-9.1
				c0.4-2.3,0.3-4.7,0.5-7.3c-0.5,0.3-0.8,0.4-1,0.6c-5.8,5.2-12.4,5.8-19.6,3.3c-10.1-3.6-16.8-14.3-15.3-25.7
				c1.3-9.9,8.8-19,20.2-20.8c5.5-0.8,10.5,0.8,14.6,4.6c0.2,0.2,0.4,0.4,0.6,0.6C393,102.5,393.1,102.5,393.3,102.5L393.3,102.5z
				 M394.2,121.2c-0.3-1.8-0.5-3.6-1-5.2c-1.7-5.2-5.1-8.7-10.6-9.3c-5.2-0.6-9.4,1.6-12.4,5.9c-3.7,5.4-3.3,13.5,0.9,18.6
				c4.3,5.3,12.1,6.3,17.5,2.1C392.5,130.2,394,126,394.2,121.2L394.2,121.2z"/>
			<path class="st0" d="M452.3,145.1c-13.7,0.2-23.8-8.2-25.5-19.8c-1.5-9.3,1.1-17.4,8.6-23.3c6.4-5.1,13.8-6.5,21.6-3.3
				c4.9,2,8.3,5.7,10.8,10.2c0.9,1.6,1.6,3.4,2.4,5c0.4,0.9,0.3,1.3-0.7,1.8c-10,4.1-19.9,8.2-29.8,12.3c-1.1,0.4-1.1,0.9-0.5,1.8
				c4.9,8.3,16.9,7.7,22,0.9c1-1.3,1-1.3,2.4-0.4c2,1.3,3.9,2.6,5.9,3.9c0.5,0.3,0.9,0.6,0.3,1.3
				C464.7,141.7,458.2,144.9,452.3,145.1L452.3,145.1z M436.8,120.4c0.2,0,0.2,0,0.3,0c6.9-2.8,13.7-5.7,20.6-8.5
				c0.7-0.3,0.6-0.7,0.3-1.2c-1.2-2-3-3.3-5.3-3.8C443.4,104.6,436.1,112.5,436.8,120.4L436.8,120.4z"/>
			<path class="st0" d="M504.6,117v26.7c-0.6,0-1.1,0.1-1.6,0.1c-2.6,0-5.2,0-7.9,0c-0.9,0-1.2-0.2-1.2-1.2
				c0-13.9,0.1-27.8,0.1-41.8c0-8.9,0-17.8-0.1-26.6c0-0.8,0.2-1.1,1.1-1.1c8.6,0.1,17.3-0.3,25.9,0.2c10.5,0.6,18.3,6.9,20.8,16.2
				c3,11.5-3.3,22.6-15.1,26.2c-2.5,0.8-5.2,1.1-7.8,1.2c-4.2,0.2-8.4,0.1-12.6,0.1C505.6,117,505.1,117,504.6,117L504.6,117z
				 M504.6,82.8c0,8.1,0,15.8,0,23.6c0,0.7,0.4,0.8,0.9,0.8c4.8,0,9.5,0,14.3,0c3.2,0,6.1-1.1,8.4-3.4c3.4-3.4,4.6-7.6,3.2-12.2
				c-1.5-4.6-4.6-7.7-9.6-8.3c-3.8-0.4-7.6-0.3-11.4-0.4C508.5,82.7,506.6,82.8,504.6,82.8L504.6,82.8z"/>
			<path class="st0" d="M566.1,107.7c2.5-5.2,6.7-8.2,11.9-9.7c6.1-1.7,12.2-1.3,17.9,1.5c6.4,3.2,9.9,8.5,10.1,15.5
				c0.3,8.2,0.1,16.5,0.2,24.7c0,1,0.1,2,0,3c0,0.3-0.5,0.8-0.8,0.8c-3,0.1-6,0-9.1,0v-5.8c-0.5,0.5-0.7,0.9-0.9,1.1
				c-8.6,9.9-22.1,6.7-27.5-0.4c-5.9-7.8-3.3-18.1,5.8-22.3c6.8-3.2,13.8-3.4,20.8-0.6c0.5,0.2,1.1,0.4,1.7,0.6
				c0.2-3.4-1.8-6.8-5-8.3c-3.5-1.6-7-1.8-10.7-0.7c-2,0.6-3.5,1.9-4.7,3.7c-0.2,0.3-0.8,0.6-1.1,0.5c-2.6-1-5.2-2.1-7.8-3.2
				C566.6,108,566.4,107.8,566.1,107.7L566.1,107.7z M584.4,122.2c-2.6,0.3-5,1-7.1,2.7c-2.6,2.2-3.2,7.6,1.2,9.6
				c0.6,0.3,1.2,0.6,1.8,0.7c7,2,14.5-2.7,15.8-9.9c0.1-0.4-0.3-1.1-0.7-1.2C592.6,122.7,587,121.9,584.4,122.2L584.4,122.2z"/>
			<path class="st0" d="M365.2,30.7c0,10.4-7.8,18.2-18.1,18.2c-10.1,0-18.1-8.2-17.9-18.5c0.2-10.8,8.5-18,17.9-18.1
				C357.2,12.2,365.2,20.4,365.2,30.7z M347.2,17.7c-6.7-0.3-12.5,4.9-12.6,13c-0.1,7.5,5.3,13,12.6,13c7.4,0,12.4-5.4,12.5-13.1
				C359.8,23.1,353.9,17.3,347.2,17.7L347.2,17.7z"/>
			<path class="st0" d="M375.6,22.1v26.2c-1.5,0-3,0-4.4,0c-1,0-1.2-0.4-1.2-1.3c0-6.1,0-12.3,0-18.4c0-5.1,0-10.1,0-15.6
				c1.4,0,2.6,0,4.1,0c1.6,0,2.5,0.5,3.3,1.9c4.6,7.6,9.4,15.1,14.1,22.6c0.1,0.1,0.2,0.2,0.4,0.6V13.2h5.5c0,0.5,0,0.9,0,1.2
				c0,10.7,0,21.4,0,32.1c0,1.1-0.6,1.7-1.7,1.7c-3.6,0.2-3.6,0.2-5.5-2.8c-4.8-7.7-9.6-15.3-14.4-23c-0.1-0.1-0.2-0.2-0.3-0.4
				C375.8,22.1,375.7,22.1,375.6,22.1L375.6,22.1z"/>
			<path class="st0" d="M301,48.3c0-0.9,0-1.8,0-2.6c0-8.8,0-17.6,0-26.4c0-0.8-0.2-1-1-1c-2.8,0-5.6,0-8.5,0v-5.4
				c0.8,0,1.5,0,2.3,0c7,0,15.2,0,22.2,0v5.4c-2.4-0.1-6,0-8.4,0c-1,0-1.2,0.3-1.2,1.2c0,9,0,19.7,0,28.7
				C306.6,48.3,302.5,48.3,301,48.3L301,48.3z"/>
			<path class="st0" d="M281.6,13.1c1.7,0,3.9-0.1,5.5,0c0,0,0,6.4,0,9c0,8.2,0,18,0,26.2h-5.5c0-9.7,0-20.5,0.1-30.2
				C281.7,16.5,281.7,14.9,281.6,13.1L281.6,13.1z"/>
			<path class="st0" d="M207.9,18.1c-1.1,1.1-2.2,2.2-3.4,3.2c-0.2,0.1-0.8,0.1-0.9-0.1c-4-3.7-10.1-4.7-14.7-2.3
				c-4.9,2.5-7.5,7.9-6.9,13.5c1,7.9,8.2,12.9,16.5,10.8c4.3-1.1,7.2-4.5,7.9-9h-12.2V29c0.4,0,0.7-0.1,1-0.1c4.9,0,9.8,0,14.7,0
				c1.4,0,1.9,0.4,2,1.8c0.9,11.7-8.2,19.2-19,18.1c-8.3-0.9-14.5-6.5-16-14.5c-2.1-10.8,5.1-20.7,16.1-21.9
				c5.4-0.6,10.2,1,14.2,4.8C207.4,17.5,207.6,17.7,207.9,18.1L207.9,18.1z"/>
			<path class="st0" d="M217.1,48.3V13.2H238v5.1c-0.6,0-1.3,0.1-1.9,0.1c-4.1,0-8.3,0-12.4,0c-0.9,0-1.1,0.3-1.1,1.2
				c0.1,2.5,0.1,4.9,0,7.4c0,0.9,0.3,1.1,1.2,1.1c3.8,0,8.9,0,12.7,0v5.2c-3.8,0-8.8,0-12.6,0c-1.1,0-1.4,0.3-1.3,1.4
				c0.1,2.3,0.1,4.7,0,7c0,0.9,0.2,1.2,1.2,1.2c4.7,0,9.4,0,14.2,0v5.5L217.1,48.3L217.1,48.3z"/>
			<path class="st0" d="M252.2,48.3c0-0.9,0-1.8,0-2.6c0-8.8,0-17.6,0-26.4c0-0.8-0.2-1-0.9-1c-2.8,0-5.6,0-8.5,0v-5.4
				c0.8,0,1.5,0,2.3,0c7,0,22.2,0.1,22.2,0.1c0,1.1,0,5.3,0,5.3c-2.4-0.1-6,0-8.4,0c-1,0-1.2,0.3-1.2,1.2c0,9,0,19.7,0,28.7
				c0,0,0,0-1.3,0C255.2,48.3,253.7,48.3,252.2,48.3L252.2,48.3z"/>
		</g>
	</g>
	<path class="st0" d="M238.5,80.8c-2.4,2.3-4.7,4.6-6.8,6.7c-2.4-1.5-4.6-3.3-7.1-4.4c-16.1-7.2-35,1.8-37.8,20.2
		c-2.2,14.6,5.7,25.9,16.8,29.8c10.3,3.6,20.2,2.4,28.5-5.5c3.6-3.5,5-8,5.6-12.9h-24.3v-10.3c0.8,0,1.6,0,2.4,0
		c9.9,0,19.8,0,29.7,0c2,0,2.1,0,2.3,1.9c0.9,8.2-0.3,15.9-4.6,23c-4.9,8.1-12.3,12.9-21.5,14.9c-18.5,3.9-36.8-5.9-43.8-23.4
		c-5.3-13.2-2-28.7,8.3-38.9c7.8-7.7,17.2-11.6,28.1-11.4c9.2,0.2,17.3,3.6,24,9.9C238.4,80.6,238.4,80.7,238.5,80.8L238.5,80.8z"/>
</g>
<g>
	<path class="st1" d="M10.9,18.5l63.8,63.6L107,49.6L35.9,8.1c-6-3.5-11.2-3.5-16.7-0.6c-2.5,1.3-5.4,4.2-6.7,7c0,0-0.8,1.6-1.1,2.6
		S10.9,18.5,10.9,18.5L10.9,18.5z"/>
	<path class="st2" d="M107,49.6l32.2,18.7c10.7,6.2,10.7,21.7,0,27.9l-31.6,18.3l-33-32.4C74.7,82.1,107,49.6,107,49.6z"/>
	<path class="st3" d="M107.7,114.5l-33-32.4l-63.5,63.7c-1.1,2.6,7,17.8,24.2,10.8L107.7,114.5L107.7,114.5z"/>
	<polygon class="st4" points="10.9,18.5 11.2,145.8 74.7,82.1 	"/>
</g>
</svg>
